# xmcd
#
# Track frame offsets:
#	150
#	14310
#	33925
#	51615
#	67057
#	77567
#	99242
#	116067
#	133862
#	146470
#	162310
#	179025
#	195607
#	212287
#	232177
#	249862
#
# Disc length: 3549 seconds
#
# Revision: 0
# Processed by: cddbd v1.5.1PL0 Copyright (c) Steve Scherf et al.
# Submitted via: dBpowerAMP V4.0
#
DISCID=e20ddb10
DTITLE=Carry `n` Ron - The Best of Ballads and Blues
DYEAR=1997
DGENRE=Blues
TTITLE0=I.O.U.
TTITLE1=Yvonne´s Song
TTITLE2=Lean on me
TTITLE3=The Rose
TTITLE4=Motherless Child
TTITLE5=Bridge over troubled water
TTITLE6=Make room for me
TTITLE7=Oh happy Day
TTITLE8=Kinder
TTITLE9=Bitter Blue
TTITLE10=A friend like this
TTITLE11=Legend in the making
TTITLE12=Here´s looking at love
TTITLE13=My love will stay true
TTITLE14=Bad Girl
TTITLE15=She hates Friday Nights
EXTD=Carry `n` Ron Music
EXTT0=
EXTT1=
EXTT2=
EXTT3=
EXTT4=
EXTT5=
EXTT6=
EXTT7=
EXTT8=
EXTT9=
EXTT10=
EXTT11=
EXTT12=
EXTT13=
EXTT14=
EXTT15=
PLAYORDER=
